<?xml version="1.0" encoding="UTF-8" standalone="no"?>
<svg
   height="20"
   viewBox="0 -960 720 800"
   width="18"
   version="1.1"
   id="svg1"
   xmlns="http://www.w3.org/2000/svg"
   xmlns:svg="http://www.w3.org/2000/svg">
  <defs
     id="defs1" />
  <path
     d="M 80,-160 Q 47,-160 23.5,-183.5 0,-207 0,-240 V -800 Q 0,-833 23.5,-856.5 47,-880 80,-880 h 167 q 11,-35 43,-57.5 32,-22.5 70,-22.5 40,0 71.5,22.5 31.5,22.5 42.5,57.5 h 166 q 33,0 56.5,23.5 23.5,23.5 23.5,56.5 v 560 q 0,33 -23.5,56.5 Q 673,-160 640,-160 Z m 0,-80 h 560 v -560 h -80 v 120 H 160 V -800 H 80 Z m 280,-560 q 17,0 28.5,-11.5 Q 400,-823 400,-840 400,-857 388.5,-868.5 377,-880 360,-880 q -17,0 -28.5,11.5 -11.5,11.5 -11.5,28.5 0,17 11.5,28.5 11.5,11.5 28.5,11.5 z"
     id="path1"
     style="fill:#000000" />
  <rect
     style="fill:#000000;stroke:#000000;stroke-width:40;stroke-linecap:square;stroke-opacity:1;paint-order:stroke markers fill"
     id="rect2"
     width="589.38342"
     height="608.68634"
     x="62.734589"
     y="-819.83911" />
  <rect
     style="fill:#000000;stroke:#000000;stroke-width:40;stroke-linecap:square;stroke-opacity:1;paint-order:stroke markers fill"
     id="rect3"
     width="111.9571"
     height="64.343163"
     x="304.66489"
     y="-882.89545" />
</svg>
