<?xml version="1.0" encoding="UTF-8" standalone="no"?>
<svg
   width="100"
   height="100.00001"
   viewBox="0 0 100 100.00001"
   version="1.1"
   id="svg1"
   xmlns="http://www.w3.org/2000/svg"
   xmlns:svg="http://www.w3.org/2000/svg">
  <defs
     id="defs1" />
  <rect
     style="fill:#ffffff;stroke:#000000;stroke-width:3.48908;stroke-linecap:square;paint-order:stroke markers fill"
     id="rect1"
     width="96.510918"
     height="96.510925"
     x="1.74454"
     y="1.74454" />
  <g
     id="svgGroup"
     stroke-linecap="round"
     fill-rule="evenodd"
     font-size="12px"
     stroke="#000"
     stroke-width="0.25mm"
     fill="#000"
     style="fill:#000000;stroke:#000000;stroke-width:0.25mm"
     transform="matrix(0.90246357,0,0,0.90246357,8.5985805,23.884459)">
    <path
       d="m 32.644789,0.125 0.75,6.875 c -0.707629,-0.029046 -1.415775,-0.043716 -2.124,-0.044 -5.032,-0.00133 -9.262667,0.7736667 -12.692,2.325 -1.382506,0.6178559 -2.682816,1.40523 -3.871,2.344 -4.172776,3.269287 -6.8440659,8.08879 -7.4050009,13.36 -0.01147,0.08827 -0.02247,0.176609 -0.033,0.265 2.308781,-1.514668 4.8861599,-2.573385 7.5930009,-3.119 1.966,-0.417333 4.084,-0.627667 6.354,-0.631 h 0.053 c 2.26406,-0.02064 4.517483,0.312029 6.679,0.986 2.347462,0.749097 4.519047,1.965511 6.384,3.576 2.456951,2.128547 4.141919,5.009128 4.793,8.194 0.357362,1.640317 0.531429,3.315252 0.519,4.994 0.02595,2.517826 -0.413418,5.018786 -1.296,7.377 -0.825582,2.140569 -2.038875,4.110518 -3.579,5.811 -3.25,3.624667 -7.958333,5.437 -14.125,5.437 -2.154111,0.0202 -4.302034,-0.233846 -6.392,-0.756 -3.865762,-0.932947 -7.2723234,-3.213441 -9.6080009,-6.432 -3.41,-4.668667 -5.15866672,-10.583333 -5.24600002,-17.744 -0.00249,-0.189323 -0.00382,-0.37866 -0.004,-0.568 0,-10.666667 2.91666672,-18.708333 8.75000002,-24.125 3.4053159,-3.1068826 7.5070089,-5.3504674 11.9600009,-6.542 2.968667,-0.84066667 6.226,-1.34666667 9.772,-1.518 0.922012,-0.0438675 1.844946,-0.0655405 2.768,-0.065 z m 49.837422,36.25 h 9.875 v 7 h -9.875 v 13.75 h -7.375 v -13.75 h -28.25 V 37.75 L 72.107211,0 h 10.375 z m -7.375,-28.625 -18.875,28.625 h 18.875 z M 27.900789,48.692 c 0.520829,-0.365933 1.000908,-0.786673 1.432,-1.255 1.958,-2.124667 2.937,-4.812 2.937,-8.062 0,-5.582 -2.380667,-8.964667 -7.142,-10.148 -1.428019,-0.334726 -2.891385,-0.494897 -4.358,-0.477 -1.047664,-0.0035 -2.094785,0.04823 -3.137,0.155 -1.860667,0.197333 -3.460667,0.583333 -4.8,1.158 -2.042,0.874667 -4.1046679,2.145333 -6.1880009,3.812 0.067484,1.634173 0.2715289,3.259839 0.61,4.86 0.3833333,1.763333 0.937,3.344667 1.661,4.744 0.508634,0.992331 1.1308039,1.922227 1.8540009,2.771 2.5,2.916667 5.833333,4.375 10,4.375 2.920667,0 5.297667,-0.644333 7.131,-1.933 z"
       vector-effect="non-scaling-stroke"
       id="path1" />
  </g>
</svg>
