<?xml version="1.0" encoding="UTF-8" standalone="no"?>
<svg
   height="18"
   viewBox="0 -960 720 720"
   width="18"
   version="1.1"
   id="svg1"
   xmlns="http://www.w3.org/2000/svg"
   xmlns:svg="http://www.w3.org/2000/svg">
  <defs
     id="defs1" />
  <path
     d="m 400,-560 h 160 v -80 H 400 320 160 v 80 H 320 Z M 80,-240 c -22,0 -40.83333,-7.83333 -56.5,-23.5 C 7.83333,-279.16667 0,-298 0,-320 v -560 c 0,-22 7.83333,-40.83333 23.5,-56.5 C 39.16667,-952.16667 58,-960 80,-960 h 560 c 22,0 40.83333,7.83333 56.5,23.5 15.66667,15.66667 23.5,34.5 23.5,56.5 v 560 c 0,22 -7.83333,40.83333 -23.5,56.5 -15.66667,15.66667 -34.5,23.5 -56.5,23.5 z m 0,-80 H 640 V -880 H 80 Z m 0,-560 v 560 z"
     id="path1"
     style="fill:#ffffff" />
</svg>
