<?xml version="1.0" encoding="UTF-8" standalone="no"?>
<svg
   height="18"
   viewBox="0 -960 720 720"
   width="18"
   version="1.1"
   id="svg1"
   xmlns="http://www.w3.org/2000/svg"
   xmlns:svg="http://www.w3.org/2000/svg">
  <defs
     id="defs1" />
  <path
     d="m 320,-400 h 80 v -160 h 160 v -80 H 400 v -160 h -80 v 160 H 160 v 80 H 320 Z M 80,-240 Q 47,-240 23.5,-263.5 0,-287 0,-320 V -880 Q 0,-913 23.5,-936.5 47,-960 80,-960 h 560 q 33,0 56.5,23.5 23.5,23.5 23.5,56.5 v 560 q 0,33 -23.5,56.5 Q 673,-240 640,-240 Z m 0,-80 H 640 V -880 H 80 Z m 0,-560 v 560 z"
     id="path1"
     style="fill:#ffffff" />
</svg>
