<?xml version="1.0" encoding="UTF-8" standalone="no"?>
<svg
   height="20"
   viewBox="0 -960 800 800"
   width="20"
   version="1.1"
   id="svg1"
   xmlns="http://www.w3.org/2000/svg"
   xmlns:svg="http://www.w3.org/2000/svg">
  <defs
     id="defs1" />
  <path
     d="m 404,-160 q -84,0 -157.5,-32 -73.5,-32 -128,-86.5 Q 64,-333 32,-406.5 0,-480 0,-564 0,-710 93,-821.5 186,-933 330,-960 q -18,99 11,193.5 29,94.5 100,165.5 71,71 165.5,100 94.5,29 193.5,11 -26,144 -138,237 -112,93 -258,93 z m 0,-80 q 88,0 163,-44 75,-44 118,-121 -86,-8 -163,-43.5 -77,-35.5 -138,-96.5 -61,-61 -97,-138 -36,-77 -43,-163 -77,43 -120.5,118.5 Q 80,-652 80,-564 80,-429 174.5,-334.5 269,-240 404,-240 Z m -20,-305 z"
     id="path1"
     style="fill:#ffffff" />
</svg>
